<svg xmlns="http://www.w3.org/2000/svg" viewBox="0 0 500 500"><g id="freepik--background-simple--inject-56"><path d="M225.58,185.67c44.21,58.77,184.88,106.05,167.48,176.17-20.72,83.48-153.85-35.77-224-47.8-99-17-139.69-146.08-88-213.57,23.46-30.65,73.21-40,115.91-1.2C236.94,135.63,200.25,152,225.58,185.67Z" style="fill:#FFC100"></path><path d="M225.58,185.67c44.21,58.77,184.88,106.05,167.48,176.17-20.72,83.48-153.85-35.77-224-47.8-99-17-139.69-146.08-88-213.57,23.46-30.65,73.21-40,115.91-1.2C236.94,135.63,200.25,152,225.58,185.67Z" style="fill:#fff;opacity:0.9"></path></g><g id="freepik--Shadow--inject-56"><ellipse id="freepik--path--inject-56" cx="250" cy="416.24" rx="193.89" ry="11.32" style="fill:#f5f5f5"></ellipse></g><g id="freepik--Device--inject-56"><path d="M403.64,359.66H289.12a10.62,10.62,0,0,1-10.66-11.09l8.41-217.4a11.65,11.65,0,0,1,11.51-11.09H412.9a10.62,10.62,0,0,1,10.66,11.09l-8.41,217.4A11.65,11.65,0,0,1,403.64,359.66Z" style="fill:#FFC100"></path><rect x="414.69" y="212.97" width="17.98" height="1.1" transform="translate(193.84 628.57) rotate(-87.77)" style="fill:#FFC100"></rect><rect x="420.71" y="193.69" width="7.43" height="1.1" transform="translate(213.78 610.77) rotate(-87.76)" style="fill:#FFC100"></rect><path d="M403.64,359.66H289.12a10.62,10.62,0,0,1-10.66-11.09l8.41-217.4a11.65,11.65,0,0,1,11.51-11.09H412.9a10.62,10.62,0,0,1,10.66,11.09l-8.41,217.4A11.65,11.65,0,0,1,403.64,359.66Z" style="fill:#fff;opacity:0.8"></path><path d="M392.68,355.25h-101a9.32,9.32,0,0,1-9.35-9.72l7.87-203.6a10.22,10.22,0,0,1,10.1-9.72h101a9.31,9.31,0,0,1,9.35,9.72l-7.87,203.6A10.23,10.23,0,0,1,392.68,355.25Z" style="fill:#FFC100"></path><ellipse cx="342.8" cy="339.05" rx="6.78" ry="6.52" transform="translate(-139.35 337.09) rotate(-44.45)" style="fill:#fff;opacity:0.8"></ellipse><path d="M344.59,292.75h0a39.28,39.28,0,0,1-39.5-41.1l1.35-35.05h-.07a7.41,7.41,0,0,1-1.18-.1l-1.36,35.15A40.49,40.49,0,0,0,344.54,294a43.93,43.93,0,0,0,31-13,5.46,5.46,0,0,1-.78-1A42.62,42.62,0,0,1,344.59,292.75Z" style="fill:#fff"></path><path d="M349.43,167.44c-21.43,0-39.8,16-43.38,36.69a6.87,6.87,0,0,1,.8,0c.16,0,.31,0,.47,0,3.54-20,21.33-35.42,42.06-35.42a39.28,39.28,0,0,1,39.51,41.1l-1.62,41.86a42.06,42.06,0,0,1-5.21,18.65,4.62,4.62,0,0,1,1.13.5,43.24,43.24,0,0,0,5.33-19.15l1.62-41.86A40.48,40.48,0,0,0,349.43,167.44Z" style="fill:#fff"></path><path d="M349.1,176a34.9,34.9,0,0,1,19,5.57,6.37,6.37,0,0,1,.65-1.1,36.1,36.1,0,0,0-19.64-5.72,38.46,38.46,0,0,0-22,7,6.13,6.13,0,0,1,.55,1.12A37.18,37.18,0,0,1,349.1,176Z" style="fill:#fff"></path><path d="M310.4,255.67a35.47,35.47,0,0,1-.34-6.47l1.43-37a37.28,37.28,0,0,1,7.58-21.05,5.18,5.18,0,0,1-1-.66,38.47,38.47,0,0,0-7.8,21.71l-1.43,37a37,37,0,0,0,.36,6.77A6.31,6.31,0,0,1,310.4,255.67Z" style="fill:#fff"></path><path d="M377.77,188.77a6,6,0,0,1-1,.82,34.78,34.78,0,0,1,7.12,22.65l-1.43,37a38,38,0,0,1-37.61,36.21h0a34.84,34.84,0,0,1-21.33-7.17,5.78,5.78,0,0,1-1.16.7,36,36,0,0,0,22.44,7.72,39.31,39.31,0,0,0,38.91-37.46l1.43-37A36,36,0,0,0,377.77,188.77Z" style="fill:#fff"></path><path d="M315.81,226.91l.47-12.22a32.87,32.87,0,0,1,32.53-31.32,29.89,29.89,0,0,1,29.66,24.72,7.15,7.15,0,0,1,1.24-.11h0a31.1,31.1,0,0,0-30.88-25.86A34.17,34.17,0,0,0,315,214.69L314.55,227a8.1,8.1,0,0,1,.87-.06Z" style="fill:#fff"></path><path d="M358.19,275.26a31.8,31.8,0,0,1-13,2.81A29.94,29.94,0,0,1,315,246.75l.29-7.36-.39,0a5.9,5.9,0,0,1-.86-.06l-.29,7.4a31.13,31.13,0,0,0,31.31,32.57,33.18,33.18,0,0,0,13.75-3A5.24,5.24,0,0,1,358.19,275.26Z" style="fill:#fff"></path><path d="M379.23,220.5c-.18,0-.36,0-.53,0l-1,26.28a32.48,32.48,0,0,1-9.2,21.29,5.7,5.7,0,0,1,.63,1.1,33.75,33.75,0,0,0,9.82-22.39l1-26.29C379.72,220.48,379.48,220.5,379.23,220.5Z" style="fill:#fff"></path><path d="M359.74,191.85a27,27,0,0,0-11.16-2.39,29.05,29.05,0,0,0-28.76,27.68l-1.05,27.15a28.07,28.07,0,0,0,.24,4.79,6.86,6.86,0,0,1,1.19-.87,25.38,25.38,0,0,1-.18-3.92l1.05-27.15a27.74,27.74,0,0,1,27.46-26.43A25.61,25.61,0,0,1,359.08,193,6.91,6.91,0,0,1,359.74,191.85Z" style="fill:#fff"></path><path d="M369.36,199.32a6.58,6.58,0,0,1-.83,1,25.37,25.37,0,0,1,5.41,16.82l-1.05,27.15a27.74,27.74,0,0,1-26.29,26.38,6.6,6.6,0,0,1-.53,1.29,29,29,0,0,0,28.07-27.67l1.05-27.15A26.57,26.57,0,0,0,369.36,199.32Z" style="fill:#fff"></path><path d="M343.29,198.63a7.14,7.14,0,0,1,.18-1.3,23.74,23.74,0,0,0-8.86,3.95,4.68,4.68,0,0,1,1.06.74A22.28,22.28,0,0,1,343.29,198.63Z" style="fill:#fff"></path><path d="M367.12,247.43a22.63,22.63,0,0,1-21.4,16A20.6,20.6,0,0,1,325,241.84l.86-22.25a21.78,21.78,0,0,1,1.72-7.64,5.08,5.08,0,0,1-.94-1,23.28,23.28,0,0,0-2,8.61l-.86,22.25a21.8,21.8,0,0,0,21.92,22.8,24,24,0,0,0,22.67-16.95A7,7,0,0,1,367.12,247.43Z" style="fill:#fff"></path><path d="M369,219.59l-.18,4.62a6.51,6.51,0,0,1,1-.1l.27,0,.17-4.55A21.76,21.76,0,0,0,355.37,198a7.53,7.53,0,0,1,0,1.34A20.55,20.55,0,0,1,369,219.59Z" style="fill:#fff"></path><path d="M348,204.13a18.8,18.8,0,0,0-18.6,17.92l-.19,4.94a7.28,7.28,0,0,1,1.24.19l.2-5.13A17.48,17.48,0,0,1,348,205.39a15.93,15.93,0,0,1,16,16.66l-.67,17.34a17.52,17.52,0,0,1-14.08,16.34,5.89,5.89,0,0,1,0,1.26,18.83,18.83,0,0,0,15.34-17.6l.67-17.34A17.13,17.13,0,0,0,348,204.13Z" style="fill:#fff"></path><path d="M336.32,218.83a6.57,6.57,0,0,1,.78,0,12.33,12.33,0,0,1,10.58-6.14,11.51,11.51,0,0,1,3.84.66,6.67,6.67,0,0,1,.53-1.15,12.62,12.62,0,0,0-4.32-.77,13.67,13.67,0,0,0-12,7.39A5.88,5.88,0,0,1,336.32,218.83Z" style="fill:#fff"></path><path d="M358.52,236.94a12.14,12.14,0,0,1-.94,4.16,4.39,4.39,0,0,1,1.09.59,13.36,13.36,0,0,0,1.1-4.75l.48-12.44a13,13,0,0,0-.35-3.45,5.45,5.45,0,0,1-1.19.46,11.33,11.33,0,0,1,.29,3Z" style="fill:#fff"></path><path d="M349,248.38a11.81,11.81,0,0,1-2.74.33A11.25,11.25,0,0,1,335,236.94l.22-5.63a6.51,6.51,0,0,1-1.24-.23l-.23,5.86a12.45,12.45,0,0,0,12.52,13,13.31,13.31,0,0,0,3.11-.38A7.08,7.08,0,0,1,349,248.38Z" style="fill:#fff"></path><path d="M347.44,218.81A8.55,8.55,0,0,0,339,227l-.29,7.54a7.61,7.61,0,0,0,.21,2.09,5.31,5.31,0,0,1,1.1-1,6.52,6.52,0,0,1-.06-1.08l.29-7.54a7.23,7.23,0,0,1,7.16-6.88A6.58,6.58,0,0,1,354,227l-.29,7.54a7.24,7.24,0,0,1-4.28,6.26,7.38,7.38,0,0,1-.2,1.4,8.53,8.53,0,0,0,5.73-7.66l.3-7.54A7.78,7.78,0,0,0,347.44,218.81Z" style="fill:#fff"></path><path d="M368.47,128.9h-35.1a1.94,1.94,0,0,1-1.94-2h0a2.12,2.12,0,0,1,2.1-2h35.09a1.94,1.94,0,0,1,1.95,2h0A2.13,2.13,0,0,1,368.47,128.9Z" style="fill:#FFC100"></path></g><g id="freepik--Shield--inject-56"><path d="M313.57,164a56,56,0,0,1-6.24.14,7.58,7.58,0,0,0-2.24-.14h-.23a83.57,83.57,0,0,1-17.33-3.13c-.58-.17-1.18-.37-1.79-.58l-4.86,125.87,32.48-21.67a11.11,11.11,0,0,0,5-8.78l3.26-84.15A7.28,7.28,0,0,0,313.57,164Z" style="opacity:0.2"></path><path d="M305.74,154.61a55.75,55.75,0,0,1-6.23.15,7.93,7.93,0,0,0-2.24-.15l-.24,0a82.94,82.94,0,0,1-17.32-3.13,51.74,51.74,0,0,1-19.13-10.84,7.15,7.15,0,0,0-5-2h-8.48a7.75,7.75,0,0,0-5.14,2,56.7,56.7,0,0,1-20,10.84,86.26,86.26,0,0,1-17.56,3.13l-.24,0a8,8,0,0,0-2.25.15,55.51,55.51,0,0,1-6.22-.15,8,8,0,0,0-8.6,7.58l-3.26,84.16a10.21,10.21,0,0,0,4.29,8.77l47.15,33.16a10.26,10.26,0,0,0,5.93,1.86h8.47a11,11,0,0,0,6.08-1.86l49.71-33.16a11.16,11.16,0,0,0,5-8.77l3.25-84.16A7.31,7.31,0,0,0,305.74,154.61Z" style="fill:#FFC100"></path><path d="M305.74,154.61a55.75,55.75,0,0,1-6.23.15,7.93,7.93,0,0,0-2.24-.15l-.24,0a82.94,82.94,0,0,1-17.32-3.13,51.74,51.74,0,0,1-19.13-10.84,7.15,7.15,0,0,0-5-2h-8.48a7.75,7.75,0,0,0-5.14,2,56.7,56.7,0,0,1-20,10.84,86.26,86.26,0,0,1-17.56,3.13l-.24,0a8,8,0,0,0-2.25.15,55.51,55.51,0,0,1-6.22-.15,8,8,0,0,0-8.6,7.58l-3.26,84.16a10.21,10.21,0,0,0,4.29,8.77l47.15,33.16a10.26,10.26,0,0,0,5.93,1.86h8.47a11,11,0,0,0,6.08-1.86l49.71-33.16a11.16,11.16,0,0,0,5-8.77l3.25-84.16A7.31,7.31,0,0,0,305.74,154.61Z" style="fill:#fff;opacity:0.8"></path><path d="M189.34,246.19l3.11-80.47a5.78,5.78,0,0,1,5.72-5.51H200a87,87,0,0,0,23.37-3.5,63.25,63.25,0,0,0,20-10.23,5.54,5.54,0,0,1,7,0,57.57,57.57,0,0,0,19.22,10.24,84.2,84.2,0,0,0,23.11,3.5h1.69a5.35,5.35,0,0,1,5.39,5.61l-3.11,80.37a5.77,5.77,0,0,1-2.57,4.54l-49.4,33a5.52,5.52,0,0,1-6.22,0l-46.86-33A5.28,5.28,0,0,1,189.34,246.19Z" style="fill:#FFC100"></path><path d="M203.07,241.94l2.64-68.41a105.64,105.64,0,0,0,20.88-3.79,78.16,78.16,0,0,0,19.69-9.06,71.72,71.72,0,0,0,19,9.06,101.52,101.52,0,0,0,20.59,3.79l-2.65,68.41-41.14,27.44Z" style="fill:#fff;opacity:0.2"></path><path d="M216.9,234.79l1.91-49.41c3.66-.69,7.35-1.56,11-2.61a88.45,88.45,0,0,0,15.83-6.38A82.14,82.14,0,0,0,261,182.77q5.42,1.57,10.83,2.61l-1.91,49.41L242.72,253Z" style="fill:#fff;opacity:0.2"></path></g></svg>